<svg width="25" height="24" viewBox="0 0 25 24" fill="none" xmlns="http://www.w3.org/2000/svg">
<path d="M10.5 2H16.5C16.7652 2 17.0196 2.10536 17.2071 2.29289C17.3946 2.48043 17.5 2.73478 17.5 3V5C17.5 5.6 17.1 6 16.5 6H10.5C9.9 6 9.5 5.6 9.5 5V3C9.5 2.4 9.9 2 10.5 2Z" stroke="white" stroke-width="2" stroke-linecap="round" stroke-linejoin="round"/>
<path d="M17.5 4H19.5C20.0304 4 20.5391 4.21071 20.9142 4.58579C21.2893 4.96086 21.5 5.46957 21.5 6V20C21.5 20.5304 21.2893 21.0391 20.9142 21.4142C20.5391 21.7893 20.0304 22 19.5 22H7.5C6.96957 22 6.46086 21.7893 6.08579 21.4142C5.71071 21.0391 5.5 20.5304 5.5 20M9.5 4H7.5C6.96957 4 6.46086 4.21071 6.08579 4.58579C5.71071 4.96086 5.5 5.46957 5.5 6V8M14.5 14H4.5" stroke="white" stroke-width="2" stroke-linecap="round" stroke-linejoin="round"/>
<path d="M8.5 10L4.5 14L8.5 18" stroke="white" stroke-width="2" stroke-linecap="round" stroke-linejoin="round"/>
</svg>
